<svg xmlns="http://www.w3.org/2000/svg" width="209.998" height="58" viewBox="0 0 209.998 58"><defs><style>.a{fill:#62bde7;}.b{fill:#f1796d;}.c{opacity:0.87;}</style></defs><rect class="a" width="12.481" height="26.429" transform="translate(17.742 31.568)"/><path class="a" d="M131.4,0l11.136,10.769H86.981V18.6H74.5V0Z" transform="translate(-56.758)"/><path class="b" d="M48.622,84.938V82.98H35.652l-11.5,1.958Z" transform="translate(-18.399 -63.219)"/><path class="b" d="M35.652,121.418H48.622V119.46H24.15Z" transform="translate(-18.399 -91.011)"/><path class="b" d="M14.205,103.178H30.223V101.22H14.205L0,102.2Z" transform="translate(0 -77.115)"/><path class="b" d="M149.448,88.236,140.27,82.73V93.375Z" transform="translate(-106.866 -63.028)"/><path class="a" d="M179.325,58.06,173.7,83.389l-5.63-25.329H148.49v5.623l7.849,4.708,1.81,1.086-1.841,1.031-7.818,4.377v27.348h12.481v-29l7.218,29H179.2l7.218-29v29L198.9,89.507V58.06Z" transform="translate(-113.128 -44.233)"/><g class="c" transform="translate(96.877 3.024)"><path d="M424.754,12.7v4.977H413.309v7.063h9.533v5h-9.533V40.589H406.8V12.7Z" transform="translate(-406.8 -12.7)"/><path d="M495.835,46.46v12.6a3.477,3.477,0,0,0,.669,2.279,2.421,2.421,0,0,0,1.972.8,4.224,4.224,0,0,0,1.829-.4,6.9,6.9,0,0,0,1.655-1.129V46.462h5.934V66.312H504.22a1.4,1.4,0,0,1-1.455-1l-.364-1.148a11.535,11.535,0,0,1-1.186,1,7.206,7.206,0,0,1-1.312.764,7.726,7.726,0,0,1-3.263.679,6.952,6.952,0,0,1-2.882-.564,5.92,5.92,0,0,1-2.115-1.579,6.923,6.923,0,0,1-1.3-2.393,9.913,9.913,0,0,1-.441-3.024V46.46Z" transform="translate(-470.11 -38.42)"/><path d="M586.436,48.18a7.007,7.007,0,0,1-2.5-.412,4.811,4.811,0,0,1-2.939-3,7.087,7.087,0,0,1-.383-2.393V32.119h-1.684a1.073,1.073,0,0,1-1.112-1.169V28.633l3.158-.612,1.167-4.841a1.178,1.178,0,0,1,1.3-.919h3.1v5.8h4.822v4.058h-4.822v9.857a1.851,1.851,0,0,0,.336,1.138,1.132,1.132,0,0,0,.967.45,1.883,1.883,0,0,0,.545-.067,2.255,2.255,0,0,0,.384-.152c.107-.057.209-.107.307-.152a.775.775,0,0,1,.336-.067.707.707,0,0,1,.431.124,1.623,1.623,0,0,1,.336.393l1.8,2.815a8.2,8.2,0,0,1-2.584,1.293A10.286,10.286,0,0,1,586.436,48.18Z" transform="translate(-537.093 -19.983)"/><path d="M653.365,46.46v12.6a3.476,3.476,0,0,0,.669,2.279,2.421,2.421,0,0,0,1.972.8,4.224,4.224,0,0,0,1.829-.4,6.906,6.906,0,0,0,1.655-1.129V46.462h5.935V66.312H661.75a1.4,1.4,0,0,1-1.455-1l-.365-1.148a11.517,11.517,0,0,1-1.186,1,7.2,7.2,0,0,1-1.312.764,7.727,7.727,0,0,1-3.263.679,6.952,6.952,0,0,1-2.882-.564,5.92,5.92,0,0,1-2.115-1.579,6.923,6.923,0,0,1-1.3-2.393,9.915,9.915,0,0,1-.441-3.024V46.46Z" transform="translate(-590.125 -38.42)"/><path d="M742.28,65.083V45.233H745.8a3.051,3.051,0,0,1,.736.076,1.294,1.294,0,0,1,.5.238,1.048,1.048,0,0,1,.307.431,3.893,3.893,0,0,1,.181.65l.326,1.858a9.7,9.7,0,0,1,2.451-2.66,4.982,4.982,0,0,1,2.967-.976,3.418,3.418,0,0,1,2.181.65l-.764,4.365a.841.841,0,0,1-.307.564,1.029,1.029,0,0,1-.612.162,4.064,4.064,0,0,1-.764-.086,5.966,5.966,0,0,0-1.11-.086,4.073,4.073,0,0,0-3.674,2.489V65.083Z" transform="translate(-662.388 -37.194)"/><path d="M813.009,45.18a10.242,10.242,0,0,1,3.608.612,7.873,7.873,0,0,1,2.813,1.779,8.108,8.108,0,0,1,1.838,2.862,10.491,10.491,0,0,1,.66,3.839,8.407,8.407,0,0,1-.057,1.091,1.742,1.742,0,0,1-.21.669.8.8,0,0,1-.412.345,1.915,1.915,0,0,1-.66.1H809.144a5.585,5.585,0,0,0,1.512,3.608,4.5,4.5,0,0,0,3.158,1.119,5.614,5.614,0,0,0,1.779-.25,9.076,9.076,0,0,0,1.331-.555c.388-.2.745-.388,1.072-.555a2.219,2.219,0,0,1,1.024-.25,1.226,1.226,0,0,1,1.072.517l1.722,2.124a8.763,8.763,0,0,1-1.981,1.712,10.335,10.335,0,0,1-2.181,1.034,11.731,11.731,0,0,1-2.239.517,16.864,16.864,0,0,1-2.134.143,11.163,11.163,0,0,1-3.915-.679,8.979,8.979,0,0,1-3.2-2.019,9.517,9.517,0,0,1-2.162-3.329,12.461,12.461,0,0,1-.8-4.632,10.487,10.487,0,0,1,.679-3.77,9.16,9.16,0,0,1,5.034-5.244A10.152,10.152,0,0,1,813.009,45.18Zm.115,4.1a3.57,3.57,0,0,0-2.66.967,5.022,5.022,0,0,0-1.262,2.784h7.409a5.242,5.242,0,0,0-.181-1.379,3.35,3.35,0,0,0-.593-1.2,3.033,3.033,0,0,0-1.081-.853A3.739,3.739,0,0,0,813.124,49.276Z" transform="translate(-708.807 -37.445)"/></g><g class="c" transform="translate(96.853 33.35)"><path d="M418.024,155.083q.268.593.512,1.215c.164-.424.336-.836.519-1.236s.371-.788.564-1.165l5.4-10.645a1.738,1.738,0,0,1,.3-.426.963.963,0,0,1,.341-.224,1.185,1.185,0,0,1,.426-.071h4.284v21.035h-4.306V151.458q0-.882.086-1.908l-5.577,10.821a1.824,1.824,0,0,1-.7.764,1.933,1.933,0,0,1-1,.26H418.2a1.939,1.939,0,0,1-1.005-.26,1.853,1.853,0,0,1-.7-.764l-5.606-10.836c.038.338.067.672.086,1s.029.638.029.917v12.107H406.7V142.53h4.284a1.194,1.194,0,0,1,.426.071.984.984,0,0,1,.341.224,1.738,1.738,0,0,1,.3.426l5.418,10.688C417.662,154.306,417.845,154.687,418.024,155.083Z" transform="translate(-406.7 -141.937)"/><path d="M528.677,182a2.078,2.078,0,0,1-.96-.174,1.324,1.324,0,0,1-.541-.722l-.319-.824c-.376.317-.736.6-1.083.838a6.961,6.961,0,0,1-1.077.614,5.409,5.409,0,0,1-1.183.376,7.355,7.355,0,0,1-1.393.124,6.039,6.039,0,0,1-1.865-.269,3.886,3.886,0,0,1-1.424-.791,3.469,3.469,0,0,1-.9-1.3,4.693,4.693,0,0,1-.319-1.791,3.783,3.783,0,0,1,.4-1.638,4.04,4.04,0,0,1,1.4-1.529,8.885,8.885,0,0,1,2.686-1.153,16.417,16.417,0,0,1,4.263-.464v-.641a2.786,2.786,0,0,0-.543-1.917,1.987,1.987,0,0,0-1.539-.591,4.048,4.048,0,0,0-1.3.174,5.806,5.806,0,0,0-.9.391c-.264.145-.521.274-.772.391a2.107,2.107,0,0,1-.9.174,1.353,1.353,0,0,1-.788-.224,1.634,1.634,0,0,1-.512-.557l-.81-1.4a9.1,9.1,0,0,1,3.013-1.784,10.54,10.54,0,0,1,3.546-.586,6.5,6.5,0,0,1,2.448.441,5.267,5.267,0,0,1,1.85,1.229,5.369,5.369,0,0,1,1.162,1.872,6.736,6.736,0,0,1,.4,2.37V182h-2.05Zm-5.142-2.729a3.548,3.548,0,0,0,1.517-.3,4.621,4.621,0,0,0,1.315-.981v-2.05a11.487,11.487,0,0,0-2.21.174,5.285,5.285,0,0,0-1.372.438,1.654,1.654,0,0,0-.7.6,1.417,1.417,0,0,0-.2.729,1.276,1.276,0,0,0,.419,1.086A2.051,2.051,0,0,0,523.535,179.271Z" transform="translate(-491.197 -160.374)"/><path d="M590.512,140.04v12.122h.664a1.415,1.415,0,0,0,.643-.117,1.2,1.2,0,0,0,.426-.419l2.831-4.218a1.54,1.54,0,0,1,.586-.548,1.866,1.866,0,0,1,.86-.174h4.1l-3.872,5.332a4.257,4.257,0,0,1-.6.664,4.846,4.846,0,0,1-.7.519,4.413,4.413,0,0,1,1.126,1.3l4.218,7.166h-4.046a2.088,2.088,0,0,1-.874-.167,1.292,1.292,0,0,1-.6-.586l-2.832-5.3a1.1,1.1,0,0,0-.419-.469,1.529,1.529,0,0,0-.65-.107h-.867v6.63H586.03V140.042h4.482Z" transform="translate(-543.323 -140.04)"/><path d="M655.557,166.97a7.751,7.751,0,0,1,2.724.462,5.964,5.964,0,0,1,2.124,1.343,6.11,6.11,0,0,1,1.386,2.16,7.9,7.9,0,0,1,.5,2.9,6.407,6.407,0,0,1-.043.824,1.263,1.263,0,0,1-.16.5.6.6,0,0,1-.31.26,1.469,1.469,0,0,1-.5.071h-8.64a4.23,4.23,0,0,0,1.141,2.724,3.39,3.39,0,0,0,2.384.845,4.242,4.242,0,0,0,1.343-.188,6.616,6.616,0,0,0,1-.419c.293-.155.564-.293.81-.419a1.693,1.693,0,0,1,.772-.188.928.928,0,0,1,.81.391l1.3,1.6a6.682,6.682,0,0,1-1.5,1.293,7.694,7.694,0,0,1-1.648.781,8.85,8.85,0,0,1-1.691.391,12.826,12.826,0,0,1-1.61.107,8.454,8.454,0,0,1-2.956-.512,6.806,6.806,0,0,1-2.412-1.524,7.157,7.157,0,0,1-1.631-2.515,9.387,9.387,0,0,1-.6-3.5,7.934,7.934,0,0,1,.512-2.846,6.909,6.909,0,0,1,3.8-3.958A7.708,7.708,0,0,1,655.557,166.97Zm.088,3.094a2.7,2.7,0,0,0-2.008.729,3.787,3.787,0,0,0-.952,2.1h5.592a3.906,3.906,0,0,0-.138-1.041,2.508,2.508,0,0,0-.448-.9,2.285,2.285,0,0,0-.817-.643A2.792,2.792,0,0,0,655.645,170.064Z" transform="translate(-590.658 -160.557)"/><path d="M718.29,181.992V167.011h2.658a2.268,2.268,0,0,1,.555.057.989.989,0,0,1,.376.181.775.775,0,0,1,.231.324,3.193,3.193,0,0,1,.138.491l.245,1.4a7.317,7.317,0,0,1,1.85-2.008,3.761,3.761,0,0,1,2.239-.736,2.579,2.579,0,0,1,1.646.491l-.579,3.294a.644.644,0,0,1-.231.426.792.792,0,0,1-.462.121,3.1,3.1,0,0,1-.579-.064,4.525,4.525,0,0,0-.838-.064,3.078,3.078,0,0,0-2.774,1.879v9.188H718.29Z" transform="translate(-644.087 -160.366)"/><path d="M773.026,170.48a1.152,1.152,0,0,1-.369.391.951.951,0,0,1-.5.117,1.571,1.571,0,0,1-.636-.138l-.686-.3a7.4,7.4,0,0,0-.831-.3,3.739,3.739,0,0,0-1.055-.138,2.227,2.227,0,0,0-1.307.324,1.051,1.051,0,0,0-.455.9.9.9,0,0,0,.3.693,2.669,2.669,0,0,0,.788.483,10.754,10.754,0,0,0,1.112.4c.414.126.838.264,1.272.419a11.465,11.465,0,0,1,1.272.543,4.738,4.738,0,0,1,1.112.767,3.432,3.432,0,0,1,.788,1.1,3.738,3.738,0,0,1,.3,1.56,5.131,5.131,0,0,1-.4,2.05,4.331,4.331,0,0,1-1.207,1.617,5.683,5.683,0,0,1-1.979,1.055,8.93,8.93,0,0,1-2.708.376,8.13,8.13,0,0,1-1.531-.145,10.4,10.4,0,0,1-1.481-.391,8.151,8.151,0,0,1-1.322-.586,5.8,5.8,0,0,1-1.041-.729l1.041-1.648a1.487,1.487,0,0,1,.448-.455,1.235,1.235,0,0,1,.679-.167,1.4,1.4,0,0,1,.7.174l.672.376a5.563,5.563,0,0,0,.845.376,3.69,3.69,0,0,0,1.222.174,3.128,3.128,0,0,0,.881-.107,1.573,1.573,0,0,0,.579-.3,1.152,1.152,0,0,0,.419-.9.972.972,0,0,0-.3-.736,2.6,2.6,0,0,0-.8-.5,9.785,9.785,0,0,0-1.119-.391c-.419-.121-.845-.257-1.279-.412a10.394,10.394,0,0,1-1.279-.557,4.349,4.349,0,0,1-1.119-.824,3.848,3.848,0,0,1-.8-1.222,4.505,4.505,0,0,1-.3-1.748,4.552,4.552,0,0,1,.369-1.812,4.207,4.207,0,0,1,1.105-1.51,5.407,5.407,0,0,1,1.85-1.034,8,8,0,0,1,2.6-.383,8.251,8.251,0,0,1,1.567.145,8.168,8.168,0,0,1,1.424.4,6.9,6.9,0,0,1,1.215.614,5.669,5.669,0,0,1,.967.774Z" transform="translate(-677.73 -160.557)"/></g></svg>